<?xml version="1.0" encoding="UTF-8"?><svg id="uuid-e46dc1f1-e883-4f9e-9785-9598d76df2bd" xmlns="http://www.w3.org/2000/svg" width="1294.42073" height="600" viewBox="0 0 1294.42073 600"><defs><style>.uuid-1f1a17dc-77bb-45f6-bb72-3775c0d95833{fill:#000;stroke-width:0px;}</style></defs><g id="uuid-288d7d84-3c73-4198-8c91-30ed04220500"><path class="uuid-1f1a17dc-77bb-45f6-bb72-3775c0d95833" d="M1257.74487,30.76923s-1.0257,0,0,0l-90.25644-29.74359h-3.07695l-3.07695-1.02564c-73.84612,66.66667-208.20515,72.82051-359.99997,61.53846-66.66666-5.1282-136.41028-13.33333-206.15383-22.5641-49.23072-5.1282-99.48715-11.28205-148.71791-15.38461-2.05129,0-5.1282,0-8.20512-1.02564-5.1282,0-11.28204-1.02564-16.41024-1.02564-55.38463-5.1282-107.6923-8.20513-155.89744-8.20513C130.56537,16.41026,29.02692,82.05128,4.41153,269.74359v4.10258c-18.46154,149.74361,26.66666,307.6923,31.79487,310.76921,1.02564,0,1.02564,1.02563,2.05128,1.02563l74.87179,14.35899h1.02564c1.02564,0,2.05128,0,3.07692-1.02563,102.5641-93.33332,342.56409-68.71795,573.33331-45.12822,118.97434,13.33333,241.02563,25.64102,341.53848,21.53845,16.41024-1.02563,31.79486-2.05129,47.17947-4.10258,128.20512-19.48719,195.89742-100.51281,211.28203-250.25642,17.43587-154.87176-29.7436-288.20509-32.82048-290.25637M136.71922,59.48718c198.97437-122.05127,784.61536,150.76922,1104.61532-10.25641,0,0,115.89746,362.05127-92.30769,472.82049-210.2564,112.82051-842.05122-131.28204-1103.58968,42.0513,2.05128-8.20516-113.84615-379.48719,91.28205-504.61539M861.84738,559.99999c4.10258,0,10.25641,1.02563,14.35899,1.02563-4.10258,0-10.25641-1.02563-14.35899-1.02563"/><path class="uuid-1f1a17dc-77bb-45f6-bb72-3775c0d95833" d="M313.12948,305.64103c16.41024-11.28205,25.64102-27.69231,25.64102-49.23076,0-43.07693-27.69231-65.64102-82.05128-65.64102h-116.92308v252.30769h121.02564c41.02564,0,89.23076-19.48719,89.23076-74.87179,0-30.76927-12.3077-51.28209-36.92306-62.56412M253.64229,390.76922h-51.28205v-148.71794h44.10257c27.69231,0,30.76923,11.28205,30.76923,22.56411,0,15.38461-9.23077,23.58974-26.66667,23.58974h-15.38461l-21.53846,46.15384h41.02564c22.56411,0,31.79487,9.23078,31.79487,28.71794,2.05127,12.3077-3.07693,27.69231-32.82052,27.69231"/><rect class="uuid-1f1a17dc-77bb-45f6-bb72-3775c0d95833" x="365.43716" y="190.76923" width="63.58975" height="252.30767"/><polygon class="uuid-1f1a17dc-77bb-45f6-bb72-3775c0d95833" points="580.82177 332.30768 549.02691 189.74358 449.53973 189.74358 449.53973 441.02565 512.10381 441.02565 512.10381 287.17948 549.02691 441.02565 612.61666 441.02565 649.53972 285.12821 649.53972 441.02565 712.10381 441.02565 712.10381 189.74358 612.61666 189.74358 580.82177 332.30768"/><path class="uuid-1f1a17dc-77bb-45f6-bb72-3775c0d95833" d="M909.02693,306.66665c16.41024-11.28205,25.64102-27.69231,25.64102-49.23076,0-43.07693-27.69228-65.64102-82.05128-65.64102h-116.92309v252.30769h121.02567c41.02564,0,89.23074-19.48719,89.23074-74.87179,0-29.7436-13.33336-51.28207-36.92306-62.56412M849.53972,391.79485h-51.28205v-146.66665h44.10259c27.69228,0,30.76923,11.28205,30.76923,22.56411,0,15.38461-9.23078,23.58974-26.66665,23.58974h-14.35899l-23.58977,46.15384h41.02564c22.56407,0,31.79486,9.23078,31.79486,28.71794,2.05133,11.28207-2.05125,25.64102-31.79486,25.64102"/><path class="uuid-1f1a17dc-77bb-45f6-bb72-3775c0d95833" d="M1080.30894,187.69231c-69.74362,0-126.15387,56.41025-126.15387,126.15383s56.41025,126.15383,126.15387,126.15383,126.15387-56.41025,126.15387-126.15383c1.02563-68.71795-55.38463-126.15383-126.15387-126.15383M1080.30894,380.51281c-35.89743,0-66.66666-29.7436-66.66666-66.66666s29.7436-66.66666,66.66666-66.66666,65.64104,29.74359,65.64104,66.66666c1.02563,37.94872-29.7436,66.66666-65.64104,66.66666"/><path class="uuid-1f1a17dc-77bb-45f6-bb72-3775c0d95833" d="M222.87306,157.94871c-5.1282,3.07692-11.28205,5.1282-17.4359,6.15385s-12.3077,2.05129-18.46153,2.05129-12.3077-1.02564-18.46153-3.07692c-5.1282-2.05129-10.25641-5.1282-14.35897-8.20512-4.10256-4.10256-7.17949-8.20513-9.23077-13.33333s-3.07692-11.28205-3.07692-17.4359,1.02564-12.30769,3.07692-17.4359,5.1282-9.23077,9.23077-13.33333c4.10256-4.10256,9.23077-6.15385,14.35897-8.20513,7.17948-2.0513,13.33333-3.07694,19.48718-3.07694,7.17949,0,13.33333,1.02564,18.46153,2.05128,5.1282,2.05128,10.25641,4.10256,14.35897,8.20513l-12.30768,13.33333c-2.05129-2.05128-5.1282-4.10256-8.20512-5.1282s-7.17949-2.05128-12.3077-2.05128c-4.10256,0-7.17949,1.02564-10.25641,2.05128-3.07692,1.02564-6.15385,3.07692-8.20512,5.1282-2.05129,2.05128-4.10256,5.1282-5.1282,8.20513s-2.05129,6.15385-2.05129,10.25641,1.02564,7.17949,2.05129,10.25641,3.07692,6.15385,5.1282,8.20513,5.1282,4.10256,8.20512,5.1282,7.17949,2.05128,10.25641,2.05128c4.10256,0,7.17949,0,10.25641-1.02564s5.1282-2.05128,7.17949-3.07692v-13.33333h-15.38461v-16.41026h32.82052s-.00002,42.05128-.00002,42.05128Z"/><path class="uuid-1f1a17dc-77bb-45f6-bb72-3775c0d95833" d="M234.15512,84.10257h32.82052c4.10256,0,8.20512,0,12.3077,1.02564,4.10256,1.02564,7.17949,2.05128,10.25641,4.10256s5.1282,4.10256,7.17949,7.17949,2.05129,7.17949,2.05129,11.28205c0,5.1282-1.02564,10.25641-4.10256,14.35897s-7.17949,6.15385-13.33333,7.17949l21.53846,33.84615h-22.56415l-17.4359-31.79487h-9.23077v31.79487h-18.46153v-78.97435h-1.02564ZM252.61665,116.92308h16.41026c2.05129,0,3.07692,0,5.1282-1.02564,1.02564-1.02564,3.07692-1.02564,4.10256-3.07692,1.02564-1.02564,1.02564-3.07692,1.02564-5.1282s0-4.10256-1.02564-5.1282-2.05129-2.05128-3.07692-3.07692c-1.02564-1.02564-3.07692-1.02564-4.10256-1.02564h-17.4359v18.46154s-1.02564,0-1.02564,0Z"/><path class="uuid-1f1a17dc-77bb-45f6-bb72-3775c0d95833" d="M376.71923,133.33333c0,5.1282-1.02563,9.23077-2.05129,13.33333-1.02563,4.10256-4.10258,7.17949-6.15383,10.25642-3.07692,3.07692-6.15383,5.1282-11.28204,7.17949-5.1282,1.02564-10.25641,2.05129-15.38461,2.05129-6.15383,0-11.28204-1.02564-15.38461-2.05129-4.10258-2.05129-8.20512-4.10256-11.28205-7.17949-3.07692-3.07692-5.1282-6.15385-6.15385-10.25641s-2.05129-8.20513-2.05129-13.33333v-49.23077h18.46153v48.20512c0,2.05128,0,5.1282,1.02563,7.17949s2.05129,4.10256,3.07692,5.1282,3.07692,3.07692,5.1282,3.07692c2.05129,1.02564,4.10258,1.02564,7.17949,1.02564,2.05129,0,5.1282,0,7.17949-1.02564s4.10258-2.05128,5.1282-3.07692c1.02563-2.05128,3.07692-3.07692,3.07692-5.1282,1.02563-2.05128,1.02563-4.10256,1.02563-7.17949v-48.20512h18.46153s.00004,49.23076.00004,49.23076Z"/><path class="uuid-1f1a17dc-77bb-45f6-bb72-3775c0d95833" d="M389.02689,84.10257h30.76923c4.10258,0,8.20512,0,12.3077,1.02564s7.17949,2.05128,10.25641,4.10256,5.1282,4.10256,7.17949,7.17949,2.05129,7.17949,2.05129,11.28205c0,5.1282-1.02563,8.20513-2.05129,11.28205-2.05129,3.07692-4.10258,6.15385-6.15383,7.17949-3.07692,2.05128-6.15383,3.07692-10.25641,4.10256-4.10258,1.02564-8.20512,1.02564-12.3077,1.02564h-13.33333v30.76923h-18.46153s-.00004-77.94872-.00004-77.94872ZM407.48846,117.94871h17.4359c1.02563,0,3.07692-1.02564,4.10258-1.02564,1.02563-1.02564,2.05129-2.05128,3.07692-3.07692s1.02563-3.07692,1.02563-5.1282,0-4.10256-1.02563-5.1282-2.05129-2.05128-4.10258-3.07692-3.07692-1.02564-5.1282-1.02564h-14.35899l-1.02563,18.46155h0Z"/><path class="uuid-1f1a17dc-77bb-45f6-bb72-3775c0d95833" d="M458.77051,124.10256c0-6.15385,1.02563-12.30769,3.07692-17.4359s5.1282-9.23077,9.23078-13.33333c4.10254-4.10256,9.23075-6.15385,14.35895-8.20513s11.28204-3.07692,18.46153-3.07692c6.15383,0,12.3077,1.02564,18.46153,3.07692,5.1282,2.05128,10.25641,5.1282,14.35899,8.20513,4.10258,4.10256,7.17949,8.20513,9.23078,13.33333s3.07692,11.28205,3.07692,17.4359-1.02563,12.30769-3.07692,17.4359-5.1282,9.23077-9.23078,13.33333-9.23078,6.15385-14.35899,8.20512c-5.1282,2.05129-11.28204,3.07692-18.46153,3.07692-6.15383,0-12.3077-1.02564-18.46153-3.07692-5.1282-2.05129-10.25641-5.1282-14.35899-8.20513-4.10258-4.10256-7.17949-8.20513-9.23078-13.33333-2.05125-5.1282-3.07688-11.28204-3.07688-17.43589M478.25767,124.10256c0,4.10256,1.02563,7.17949,2.05129,10.25641,1.02563,3.07692,3.07692,6.15385,5.1282,8.20513s5.1282,4.10256,8.20512,5.1282,7.17949,2.05128,10.25641,2.05128c4.10258,0,7.17949-1.02564,10.25641-2.05128,3.07692-1.02564,6.15383-3.07692,8.20512-5.1282s4.10258-5.1282,5.1282-8.20513,2.05129-6.15385,2.05129-10.25641-1.02563-7.17949-2.05129-10.25641c-1.02563-3.07692-3.07692-6.15385-5.1282-8.20513s-5.1282-4.10256-8.20512-5.1282-7.17949-2.05128-10.25641-2.05128c-4.10258,0-7.17949,1.02564-10.25641,2.05128-3.07692,1.02564-6.15383,3.07692-8.20512,5.1282s-4.10258,5.1282-5.1282,8.20513c-2.05129,3.07692-2.05129,6.15385-2.05129,10.25641"/><path class="uuid-1f1a17dc-77bb-45f6-bb72-3775c0d95833" d="M1236.20634,566.15382c0-4.10258,1.02563-7.17949,2.05125-10.25641s3.07695-6.15383,6.15383-8.20512c2.05125-2.05129,5.1282-4.10258,8.20516-6.15383,3.07695-1.02563,7.17946-2.05129,10.25641-2.05129,4.10258,0,7.17946,1.02563,10.25641,2.05129,3.07695,1.02563,6.15383,3.07692,8.20516,5.1282,2.05125,2.05129,4.10258,5.1282,6.15383,8.20512,1.02563,3.07692,2.05125,7.17949,2.05125,10.25641,0,4.10258-1.02563,7.17949-2.05125,10.25641s-3.07695,6.15383-6.15383,8.20512c-2.05125,2.05129-5.1282,4.10258-8.20516,6.15383-3.07695,1.02563-7.17946,2.05129-10.25641,2.05129-4.10258,0-7.17946-1.02563-10.25641-2.05129-3.07695-1.02563-6.15383-3.07692-8.20516-5.1282-2.05125-2.05129-4.10258-5.1282-6.15383-8.20512-1.02555-3.07692-2.05125-6.15383-2.05125-10.25641M1241.33455,566.15382c0,3.07692,1.02563,6.15383,2.05125,9.23078,1.02563,3.07692,3.07695,5.1282,5.1282,7.17949s4.10258,4.10258,7.17946,5.1282c3.07695,1.02563,6.15383,2.05129,9.23078,2.05129s6.15383-1.02563,9.23078-2.05129c3.07695-1.02563,5.1282-3.07692,7.17946-5.1282s4.10258-4.10258,5.1282-7.17949,2.05125-6.15383,2.05125-9.23078-1.02563-6.15383-2.05125-9.23078c-1.02563-3.07692-3.07695-5.1282-5.1282-7.17949s-4.10258-4.10258-7.17946-5.1282c-3.07695-1.02563-6.15383-2.05129-9.23078-2.05129s-6.15383,1.02563-9.23078,2.05129c-3.07695,1.02563-5.1282,3.07692-7.17946,5.1282s-4.10258,4.10258-5.1282,7.17949c-2.05125,3.07695-2.05125,6.15387-2.05125,9.23078M1253.64229,550.7692h11.28204c4.10258,0,6.15383,1.02563,8.20516,2.05129s3.07695,4.10258,3.07695,7.17949-1.02563,5.1282-2.05125,6.15383c-2.05125,1.02563-3.07695,2.05129-6.15383,2.05129l9.23078,13.33333h-5.1282l-8.20516-13.33333h-5.1282v13.33333h-4.10266v-30.76923h-1.02563ZM1257.74487,565.12819h8.20516c1.02563,0,2.05125,0,3.07695-1.02563,1.02563,0,1.02563-1.02563,2.05125-1.02563,0-1.02563,1.02563-2.05129,1.02563-3.07692s0-2.05129-1.02563-3.07692c0-1.02563-1.02563-1.02563-2.05125-1.02563s-1.02563-1.02563-2.05125-1.02563h-9.23071l-.00016,10.25633h0Z"/></g></svg>